<svg xmlns="http://www.w3.org/2000/svg" width="22" height="19" fill="none" xmlns:v="https://vecta.io/nano"><path d="M20.299 9.786c2.268-2.242 2.268-5.884 0-8.104-2.268-2.242-5.95-2.242-8.218 0l-1.1 1.11-1.1-1.088C7.612-.561 3.93-.561 1.684 1.682.584 2.77 0 4.213 0 5.745a5.75 5.75 0 0 0 1.684 4.063L10.98 19l9.319-9.214zM1.437 5.745c0-1.155.449-2.22 1.28-3.02A4.33 4.33 0 0 1 5.771 1.46a4.33 4.33 0 0 1 3.054 1.266l2.156 2.109 2.156-2.131c1.684-1.665 4.446-1.665 6.108 0 .808.799 1.28 1.865 1.28 3.02s-.449 2.22-1.28 3.02l-8.263 8.193-8.263-8.171c-.808-.822-1.28-1.887-1.28-3.02z" fill="#000"/></svg>